# AST/ASF file generated using VICON BodyLanguage
# -----------------------------------------------
:version 1.10
:name VICON
:units
  mass 1.0
  length 0.45
  angle deg
:documentation
   .ast/.asf automatically generated from VICON data using
   VICON BodyBuilder and BodyLanguage model FoxedUp or BRILLIANT.MOD
:root
   order TX TY TZ RX RY RZ
   axis XYZ
   position 0 0 0  
   orientation 0 0 0 
:bonedata
  begin
     id 1 
     name lhipjoint
     direction 0.440178 -0.822639 0.359871 
     length 2.53113 
     axis 0 0 0  XYZ
  end
  begin
     id 2 
     name lfemur
     direction 0.34202 -0.939693 0  
     length 7.88132  
     axis 0 0 20  XYZ
    dof rx ry rz
    limits (-160.0 20.0)
           (-70.0 70.0)
           (-60.0 70.0)
  end
  begin
     id 3 
     name ltibia
     direction 0.34202 -0.939693 0   
     length 8.43783   
     axis 0 0 20   XYZ
    dof rx
    limits (-10.0 170.0)
  end
  begin
     id 4 
     name lfoot
     direction 0.0886351 -0.243523 0.965837   
     length 2.63414   
     axis -90 7.62852e-016 20   XYZ
    dof rx rz
    limits (-45.0 90.0)
           (-70.0 20.0)
  end
  begin
     id 5 
     name ltoes
     direction 1.53703e-011 -4.21717e-011 1   
     length 1.31427   
     axis -90 7.62852e-016 20   XYZ
    dof rx
    limits (-90.0 20.0)
  end
  begin
     id 6 
     name rhipjoint
     direction -0.399779 -0.839773 0.367367   
     length 2.47948  
     axis 0 0 0  XYZ 
  end
  begin
     id 7 
     name rfemur
     direction -0.34202 -0.939693 0   
     length 7.74806   
     axis 0 0 -20   XYZ
    dof rx ry rz
    limits (-160.0 20.0)
           (-70.0 70.0)
           (-70.0 60.0)
  end
  begin
     id 8 
     name rtibia
     direction -0.34202 -0.939693 0   
     length 8.74432   
     axis 0 0 -20   XYZ
    dof rx
    limits (-10.0 170.0)
 end
 begin
     id 9 
     name rfoot
     direction -0.108514 -0.298139 0.948334   
     length 2.66102  
     axis -90 -7.62852e-016 -20   XYZ
    dof rx rz
    limits (-45.0 90.0)
           (-20.0 70.0)
  end
  begin
     id 10 
     name rtoes
     direction -1.53392e-011 -4.22077e-011 1   
     length 1.31983   
     axis -90 -7.62852e-016 -20   XYZ
    dof rx
    limits (-90.0 20.0)
  end
  begin
     id 11 
     name lowerback
     direction 0.0113257 0.999866 0.0118602   
     length 2.58694   
     axis 0 0 0   XYZ
    dof rx ry rz
    limits (-20.0 45.0)
           (-30.0 30.0)
           (-30.0 30.0)
  end
  begin
     id 12 
     name upperback
     direction -0.0164747 0.995193 -0.0965375   
     length 2.52368   
     axis 0 0 0   XYZ
    dof rx ry rz
    limits (-20.0 45.0)
           (-30.0 30.0)
           (-30.0 30.0)
  end
  begin
     id 13 
     name thorax
     direction -0.0194301 0.99433 -0.104552   
     length 2.56099   
     axis 0 0 0   XYZ
    dof rx ry rz
    limits (-20.0 45.0)
           (-30.0 30.0)
           (-30.0 30.0)
  end
  begin
     id 14 
     name lowerneck
     direction 0.0148543 0.995587 -0.092657   
     length 1.71582   
     axis 0 0 0   XYZ
    dof rx ry rz
    limits (-20.0 45.0)
           (-30.0 30.0)
           (-30.0 30.0)
  end
  begin
     id 15 
     name upperneck
     direction -0.0135467 0.993656 -0.111639   
     length 1.68937   
     axis 0 0 0   XYZ
    dof rx ry rz
    limits (-20.0 45.0)
           (-30.0 30.0)
           (-30.0 30.0)
  end
  begin
     id 16
     name head
     direction -0.00615349 0.999547 -0.029448  
     length 1.7462  
     axis 0 0 0   XYZ
    dof rx ry rz
    limits (-20.0 45.0)
           (-30.0 30.0)
           (-30.0 30.0)
  end
  begin
     id 17 
     name lclavicle
     direction 0.988267 0.149885 0.0293713  
     length 4.47222  
     axis 0 0 0   XYZ
    dof ry rz
    limits (-20.0 10.0)
           (0.0 20.0)
  end
  begin
     id 18 
     name lhumerus
     direction 1 -4.48986e-011 -1.14833e-027   
     length 5.37148   
     axis 180 -30 -90   XYZ
    dof rx ry rz
    limits (-60.0 90.0)
           (-90.0 90.0)
           (-90.0 90.0)
  end
  begin
     id 19
     name lradius
     direction 0.999998 0.00170963 -0.000987055   
     length 3.94212   
     axis 180 -30 -90   XYZ
    dof rx
    limits (-10.0 170.0)
  end
  begin
     id 20
     name lwrist
     direction 0.999998 7.53149e-005 -0.00194706   
     length 1.97106   
     axis 4.65056e-015 90 90   XYZ
    dof ry
    limits (-180.0 0.0)
 end
  begin
     id 21 
     name lhand
     direction 1 -4.48973e-011 -1.31746e-026   
     length 1.17917   
     axis 8.4065e-015 90 90   XYZ
    dof rx rz
    limits (-90.0 90.0)
           (-45.0 45.0)
  end
  begin
     id 22 
     name lfingers
     direction 1 -4.49107e-011 -2.63492e-026   
     length 0.950679   
     axis 1.6813e-014 90 90   XYZ
    dof rx
    limits (0.0 90.0)
  end
  begin
     id 23
     name lthumb
     direction 0.707107 -6.35048e-011 0.707107   
     length 1.36499   
     axis -90 45 2.85299e-015   XYZ
    dof rx rz
    limits (-45.0 45.0)
           (-45.0 45.0)
  end
  begin
     id 24 
     name rclavicle
     direction -0.996699 0.0642895 -0.0495725   
     length 4.62611  
     axis 0 0 0   XYZ 
    dof ry rz
    limits (-10.0 20.0)
           (-20.0 0.0)
  end
  begin
     id 25 
     name rhumerus
     direction -1 -4.48919e-011 -2.41059e-027  
     length 5.4981   
     axis 180 30 90   XYZ
    dof rx ry rz
    limits (-90.0 60.0)
           (-90.0 90.0)
           (-90.0 90.0)
  end
  begin
     id 26 
     name rradius
     direction -0.999999 0.00118101 -0.000681858   
     length 3.48381   
     axis 180 30 90   XYZ
    dof rx
    limits (-10.0 170.0)
  end
  begin
     id 27 
     name rwrist
     direction -0.999999 0.000321823 -0.00132288   
     length 1.7419   
     axis 4.65056e-015 -90 -90   XYZ
    dof ry
    limits (-180.0 0.0)
  end
  begin
     id 28
     name rhand
     direction -1 -4.49022e-011 -1.31746e-026   
     length 1.34932   
     axis 8.4065e-015 -90 -90   XYZ
    dof rx rz
    limits (-90.0 90.0)
           (-45.0 45.0)
  end
  begin
     id 29
     name rfingers
     direction -1 -4.49178e-011 -2.63492e-026   
     length 1.08785   
     axis 1.6813e-014 -90 -90   XYZ
    dof rx
    limits (0.0 90.0)
  end
  begin
     id 30
     name rthumb
     direction -0.707107 -6.34713e-011 0.707107   
     length 1.56195   
     axis -90 -45 -2.85299e-015   XYZ
    dof rx rz
    limits (-45.0 45.0)
           (-45.0 45.0)
  end
:hierarchy
  begin
    root lhipjoint rhipjoint lowerback
    lhipjoint lfemur
    lfemur ltibia
    ltibia lfoot
    lfoot ltoes
    rhipjoint rfemur
    rfemur rtibia
    rtibia rfoot
    rfoot rtoes
    lowerback upperback
    upperback thorax
    thorax lowerneck lclavicle rclavicle
    lowerneck upperneck
    upperneck head
    lclavicle lhumerus
    lhumerus lradius
    lradius lwrist
    lwrist lhand lthumb
    lhand lfingers
    rclavicle rhumerus
    rhumerus rradius
    rradius rwrist
    rwrist rhand rthumb
    rhand rfingers
  end

#!OML:ASF X:\für Bonn\!DataBase\2005_08_10_Bjorn_Final\c3d\bjorn.ASF
:FULLY-SPECIFIED
:DEGREES
1
root 4.28837 23.28 -0.383677 4.47824 -7.40327 359.43
lowerback 8.01292 -0.371098 0.386515
upperback 10.6445 -0.510252 -0.302486
thorax 6.6594 -0.231513 -0.524336
lowerneck -0.912794 0.0797058 1.5209
upperneck 2.77414 0.140726 -2.38876
head 1.00831 0.0561104 -0.988517
rclavicle 5.06901e-015 1.78906e-015
rhumerus -22.9824 -15.8379 -79.4661
rradius 53.754
rwrist 4.75542
rhand -13.9232 22.2391
rfingers 7.12502
rthumb 12.2031 -7.38493
lclavicle 5.06901e-015 1.78906e-015
lhumerus -10.3357 -12.9515 87.4186
lradius 41.757
lwrist 7.18701
lhand -24.7243 -19.3176
lfingers 7.12502
lthumb 1.77789 10.6548
rfemur -34.2973 -4.06811 17.6739
rtibia 46.9039
rfoot 17.8862 12.5502
rtoes -13.6816
lfemur -26.3447 3.28616 -16.2901
ltibia 39.865
lfoot 14.8852 -4.78371
ltoes -23.4896
2
root 4.29407 23.1514 -0.182162 4.90895 -7.42722 359.439
lowerback 7.76032 -0.394581 0.471841
upperback 10.8327 -0.541226 -0.304464
thorax 7.00824 -0.23936 -0.576919
lowerneck -1.42819 0.132736 1.63267
upperneck 2.39824 0.200578 -2.50256
head 0.981114 0.0837295 -1.0423
rclavicle -1.66979e-014 1.0138e-014
rhumerus -23.3471 -16.1462 -80.1826
rradius 52.6446
rwrist 4.25713
rhand -13.3867 22.1591
rfingers 7.12502
rthumb 12.7204 -7.43347
lclavicle -1.66979e-014 1.0138e-014
lhumerus -10.6367 -11.3492 88.2151
lradius 39.597
lwrist 7.31093
lhand -25.1955 -18.9626
lfingers 7.12502
lthumb 1.32271 11.0131
rfemur -34.6798 -3.27079 17.3835
rtibia 45.5273
rfoot 17.5572 11.8886
rtoes -13.0986
lfemur -27.3823 3.12065 -16.2515
ltibia 39.0426
lfoot 14.2251 -4.67801
ltoes -24.9186
3
root 4.29875 23.0103 0.0259109 5.35426 -7.49226 359.442
lowerback 7.38505 -0.392849 0.546562
upperback 11.0449 -0.541819 -0.283054
thorax 7.45558 -0.233114 -0.600888
lowerneck -2.17004 0.156114 1.58608
upperneck 2.17305 0.221157 -2.49517
head 1.03768 0.0897931 -1.03291
rclavicle -8.94531e-015 1.15295e-014
rhumerus -23.7138 -16.3244 -80.8738
rradius 51.6242
rwrist 3.6883
rhand -13.0648 21.9424
rfingers 7.12502
rthumb 13.0307 -7.63056
lclavicle -8.94531e-015 1.15295e-014
lhumerus -10.8156 -9.51396 88.9791
lradius 37.4783
lwrist 7.62637
lhand -25.4291 -18.8943
lfingers 7.12502
lthumb 1.09718 11.0826
rfemur -35.0286 -2.45744 17.0932
rtibia 44.2191
rfoot 17.2662 11.3306
rtoes -12.9596
lfemur -28.3867 2.94545 -16.1792
ltibia 38.2274
lfoot 13.6378 -4.47853
ltoes -26.2036
4
root 4.3035 22.858 0.238436 5.78777 -7.53625 359.474
lowerback 7.00551 -0.376969 0.675985
upperback 11.2144 -0.520059 -0.31556
thorax 7.85978 -0.208375 -0.711876
lowerneck -2.84929 0.1626 1.58933
upperneck 1.91912 0.218106 -2.49062
head 1.07452 0.0849191 -1.03302
rclavicle -3.62782e-014 1.17283e-014
rhumerus -24.1765 -16.5959 -81.6188
rradius 50.6221
rwrist 3.33169
rhand -13.0342 21.6829
rfingers 7.12502
rthumb 13.0603 -7.88819
lclavicle -3.62782e-014 1.17283e-014
lhumerus -11.0085 -7.5415 89.6017
lradius 35.451
lwrist 8.21371
lhand -25.4167 -19.1535
lfingers 7.12502
lthumb 1.10913 10.8234
rfemur -35.3185 -1.67177 16.7686
rtibia 43.0056
rfoot 16.994 10.962
rtoes -13.1884
lfemur -29.3364 2.65617 -16.095
ltibia 37.432
lfoot 13.1875 -4.04228
ltoes -26.9132
5
root 4.30584 22.6942 0.454225 6.22146 -7.59656 359.527
lowerback 6.5861 -0.343762 0.763669
upperback 11.3486 -0.476492 -0.352525
thorax 8.25026 -0.175295 -0.804063
lowerneck -3.68936 0.217961 1.83194
upperneck 1.74603 0.275687 -2.76916
head 1.16943 0.106237 -1.16351
rclavicle 4.16454e-014 -6.16232e-015
rhumerus -24.5892 -16.9342 -82.3478
rradius 49.4924
rwrist 3.19946
rhand -13.1918 21.5188
rfingers 7.12502
rthumb 12.9083 -8.06199
lclavicle 4.16454e-014 -6.16232e-015
lhumerus -11.2229 -5.36674 90.1461
lradius 33.5294
lwrist 8.93942
lhand -25.2584 -19.5075
lfingers 7.12502
lthumb 1.26196 10.4685
rfemur -35.5763 -0.781661 16.3694
rtibia 41.9212
rfoot 16.8927 10.5421
rtoes -13.4695
lfemur -30.2189 2.34021 -15.9971
ltibia 36.6889
lfoot 12.7797 -3.59277
ltoes -27.7597
6
root 4.3086 22.5164 0.676526 6.59706 -7.68428 359.55
lowerback 6.19333 -0.305335 0.893865
upperback 11.4509 -0.426105 -0.388593
thorax 8.59201 -0.135215 -0.918064
lowerneck -4.31395 0.263301 2.06152
upperneck 1.37611 0.316686 -3.08316
head 1.16546 0.119734 -1.30223
rclavicle -9.44227e-015 1.799e-014
rhumerus -24.9795 -17.42 -83.042
rradius 48.3153
rwrist 3.15896
rhand -13.2404 21.3853
rfingers 7.12502
rthumb 12.8615 -8.19843
lclavicle -9.44227e-015 1.799e-014
lhumerus -11.5539 -3.00621 90.6059
lradius 31.7483
lwrist 9.57061
lhand -25.0543 -19.6906
lfingers 7.12502
lthumb 1.45913 10.2842
rfemur -35.7302 0.217333 15.9483
rtibia 40.9685
rfoot 17.0521 10.2346
rtoes -14.5555
lfemur -30.9721 1.94116 -15.8102
ltibia 36.0347
lfoot 12.4057 -2.89215
ltoes -28.4199
7
root 4.31114 22.3238 0.903198 6.85286 -7.77472 359.525
lowerback 5.87215 -0.264764 1.05768
upperback 11.5453 -0.374661 -0.402484
thorax 8.88554 -0.0927834 -1.02626
lowerneck -4.8018 0.2753 2.26526
upperneck 0.88624 0.310546 -3.40561
head 1.09859 0.110179 -1.43975
rclavicle -1.10325e-014 1.78906e-014
rhumerus -25.4183 -18.0404 -83.6015
rradius 47.1914
rwrist 2.92587
rhand -12.9575 21.3459
rfingers 7.12502
rthumb 13.1342 -8.22048
lclavicle -1.10325e-014 1.78906e-014
lhumerus -11.9981 -0.539207 90.96
lradius 30.0657
lwrist 10.0548
lhand -24.8913 -19.5061
lfingers 7.12502
lthumb 1.61651 10.4676
rfemur -35.689 1.26754 15.542
rtibia 40.1462
rfoot 17.6509 10.1538
rtoes -15.9158
lfemur -31.5857 1.48804 -15.5266
ltibia 35.5276
lfoot 12.1829 -2.13733
ltoes -28.4748
8
root 4.31175 22.1111 1.13579 6.95802 -7.86443 359.308
lowerback 5.69241 -0.20937 1.42892
upperback 11.6337 -0.305915 -0.378693
thorax 9.09282 -0.0260686 -1.20839
lowerneck -5.127 0.253056 2.31671
upperneck 0.242811 0.259284 -3.51398
head 0.951007 0.0825066 -1.48202
rclavicle -1.2921e-014 -1.31198e-014
rhumerus -25.9139 -18.9141 -84.0805
rradius 46.0739
rwrist 2.54523
rhand -12.5138 21.4184
rfingers 7.12502
rthumb 13.5618 -8.11991
lclavicle -1.2921e-014 -1.31198e-014
lhumerus -12.602 1.97949 91.1881
lradius 28.6146
lwrist 10.4211
lhand -24.7346 -19.0121
lfingers 7.12502
lthumb 1.7679 10.9603
rfemur -35.3567 2.36586 15.3522
rtibia 39.4674
rfoot 18.4738 10.3009
rtoes -16.7436
lfemur -32.0188 0.953491 -14.9662
ltibia 35.2164
lfoot 11.9751 -1.29514
ltoes -28.1142
9
root 4.31332 21.8786 1.36934 7.0405 -7.91172 359.049
lowerback 5.53209 -0.174759 1.85741
upperback 11.6425 -0.266303 -0.340505
thorax 9.19942 0.0300068 -1.40683
lowerneck -5.22577 0.222447 2.15854
upperneck -0.56753 0.2048 -3.38248
head 0.709736 0.0590088 -1.40937
rclavicle -1.71949e-014 -1.39149e-015
rhumerus -26.4943 -19.8899 -84.4204
rradius 44.9428
rwrist 2.21734
rhand -12.0205 21.4505
rfingers 7.12502
rthumb 14.0372 -8.05545
lclavicle -1.71949e-014 -1.39149e-015
lhumerus -13.4423 4.57555 91.2614
lradius 27.4777
lwrist 11.0153
lhand -24.6256 -18.5461
lfingers 7.12502
lthumb 1.87313 11.4254
rfemur -34.8594 3.44128 15.2089
rtibia 38.9793
rfoot 19.2421 10.4528
rtoes -16.0955
lfemur -32.5028 0.344767 -14.3271
ltibia 35.1465
lfoot 11.7317 -0.524516
ltoes -28.1859
10
root 4.31354 21.6328 1.60204 7.19852 -7.94708 358.887
lowerback 5.21313 -0.13373 2.16191
upperback 11.5987 -0.221504 -0.30388
thorax 9.3397 0.0785077 -1.53778
lowerneck -5.25197 0.178661 1.86133
upperneck -1.50763 0.139289 -3.11281
head 0.416252 0.0331021 -1.2693
rclavicle 3.75703e-014 -1.10325e-014
rhumerus -27.045 -21.0609 -84.5996
rradius 43.7536
rwrist 2.01438
rhand -11.4378 21.5503
rfingers 7.12502
rthumb 14.5987 -7.91594
lclavicle 3.75703e-014 -1.10325e-014
lhumerus -14.3839 7.0535 91.1927
lradius 26.5946
lwrist 12.0613
lhand -24.7629 -18.627
lfingers 7.12502
lthumb 1.74059 11.3457
rfemur -34.3722 4.40447 14.9817
rtibia 38.7276
rfoot 19.7974 10.7697
rtoes -14.5349
lfemur -33.184 -0.328648 -13.7557
ltibia 35.379
lfoot 11.4343 0.204017
ltoes -28.9272
11
root 4.3145 21.3813 1.83291 7.28402 -7.93477 358.75
lowerback 4.96734 -0.101999 2.43372
upperback 11.5057 -0.188932 -0.251655
thorax 9.38153 0.115891 -1.63344
lowerneck -5.23275 0.128679 1.56717
upperneck -2.39555 0.0693504 -2.88474
head 0.134669 0.00507819 -1.14517
rclavicle 6.95746e-016 -2.82274e-014
rhumerus -27.6954 -22.4107 -84.5818
rradius 42.6119
rwrist 1.84777
rhand -10.7167 21.6226
rfingers 7.12502
rthumb 15.2934 -7.79199
lclavicle 6.95746e-016 -2.82274e-014
lhumerus -15.5157 9.4346 90.9976
lradius 26.0162
lwrist 13.2561
lhand -25.0472 -18.5579
lfingers 7.12502
lthumb 1.46596 11.4168
rfemur -33.7543 5.2894 14.7559
rtibia 38.7655
rfoot 19.9207 11.3847
rtoes -12.724
lfemur -33.7765 -0.99166 -13.2381
ltibia 35.9209
lfoot 11.2159 0.608109
ltoes -29.4612
12
root 4.31431 21.124 2.06395 7.36966 -7.91483 358.616
lowerback 4.7184 -0.0753372 2.68217
upperback 11.3649 -0.163846 -0.190396
thorax 9.37074 0.145852 -1.70641
lowerneck -5.31233 0.0881955 1.26402
upperneck -3.11664 0.0168979 -2.66412
head -0.0764438 -0.0151596 -1.02392
rclavicle -1.1281e-014 2.09221e-014
rhumerus -28.4269 -23.8194 -84.4117
rradius 41.474
rwrist 1.34435
rhand -9.8351 21.6793
rfingers 7.12502
rthumb 16.1424 -7.6685
lclavicle -1.1281e-014 2.09221e-014
lhumerus -16.7748 11.6165 90.6351
lradius 25.7071
lwrist 14.6522
lhand -25.3235 -17.9818
lfingers 7.12502
lthumb 1.19913 11.9946
rfemur -33.1613 5.97649 14.6169
rtibia 39.1187
rfoot 19.5347 12.3975
rtoes -12.5783
lfemur -34.2908 -1.50763 -12.7788
ltibia 36.7645
lfoot 11.1809 0.476097
ltoes -29.071
13
root 4.31501 20.85 2.29777 7.48793 -7.88392 358.481
lowerback 4.35978 -0.0450865 2.90499
upperback 11.2498 -0.140763 -0.101928
thorax 9.45395 0.172529 -1.73643
lowerneck -5.71208 0.120644 0.988252
upperneck -3.7217 0.0624255 -2.49832
head -0.19653 0.0111204 -0.924752
rclavicle -8.02593e-015 1.93815e-014
rhumerus -29.2642 -25.1829 -84.1631
rradius 40.5483
rwrist 0.350384
rhand -9.07161 21.6137
rfingers 7.12502
rthumb 16.8775 -7.67287
lclavicle -8.02593e-015 1.93815e-014
lhumerus -18.0044 13.5337 90.2022
lradius 25.7079
lwrist 16.2997
lhand -25.7193 -16.9549
lfingers 7.12502
lthumb 0.816825 13.0233
rfemur -32.6258 6.4912 14.5288
rtibia 39.7607
rfoot 18.6156 13.5355
rtoes -12.1642
lfemur -34.9116 -1.95583 -12.3506
ltibia 37.8712
lfoot 11.1752 -0.140791
ltoes -28.8928
